<svg xmlns="http://www.w3.org/2000/svg" enable-background="new 0 0 64 64" viewBox="0 0 64 64" id="timeline">
  <path fill="#aad7fd" d="M46,5v52c0,2.76-2.24,5-5,5H16V50c0-1.1-0.9-2-2-2H2V5c0-2.76,2.24-5,5-5h34C43.76,0,46,2.24,46,5z"></path>
  <path fill="#48a1ff" d="M14,48c1.105,0,2,0.895,2,2v12c-0.53,0-1.04-0.21-1.41-0.59l-12-12C2.21,49.04,2,48.53,2,48H14z"></path>
  <path fill="#f2f2fd" d="M39 16H24c-1.104 0-2-.896-2-2s.896-2 2-2h15c1.104 0 2 .896 2 2S40.104 16 39 16zM29 28h-5c-1.104 0-2-.896-2-2s.896-2 2-2h5c1.104 0 2 .896 2 2S30.104 28 29 28z"></path>
  <path fill="#2c39fd" d="M12 40.031c-.512 0-1.024-.195-1.414-.586l-2-2c-.781-.781-.781-2.047 0-2.828.78-.781 2.048-.781 2.828 0L12 35.203l2.586-2.585c.78-.781 2.048-.781 2.828 0 .781.781.781 2.047 0 2.828l-4 4C13.024 39.836 12.512 40.031 12 40.031zM12 28.031c-.512 0-1.024-.195-1.414-.586l-2-2c-.781-.781-.781-2.047 0-2.828.78-.781 2.048-.781 2.828 0L12 23.203l2.586-2.585c.78-.781 2.048-.781 2.828 0 .781.781.781 2.047 0 2.828l-4 4C13.024 27.836 12.512 28.031 12 28.031zM12 16.031c-.512 0-1.024-.195-1.414-.586l-2-2c-.781-.781-.781-2.047 0-2.828.78-.781 2.048-.781 2.828 0L12 11.203l2.586-2.585c.78-.781 2.048-.781 2.828 0 .781.781.781 2.047 0 2.828l-4 4C13.024 15.836 12.512 16.031 12 16.031z"></path>
  <circle cx="44" cy="45" r="19" fill="#2c39fd"></circle>
  <path fill="#f2f2fd" d="M39,53c-0.512,0-1.024-0.195-1.414-0.586c-0.781-0.781-0.781-2.047,0-2.828L42,45.171V36c0-1.104,0.896-2,2-2
			s2,0.896,2,2v10c0,0.53-0.211,1.039-0.586,1.414l-5,5C40.024,52.805,39.512,53,39,53z"></path>
</svg>
